{"title":"Ender's Game (2013) BRrip 720p x264 Dual Audio [Eng DD 5.1-Hindi","uid":10876871,"size":1266994973,"categoryP":"video","categoryS":"hd___movies","magnet":"?xt=urn:btih:5b1570f42853df307e21bf3b34aa3a45c1e130eb&amp;dn=Ender%27s+Game+%282013%29+BRrip+720p+x264+Dual+Audio+%5BEng+DD+5.1-Hindi&amp;tr=udp%3A%2F%2Ftracker.openbittorrent.com%3A80&amp;tr=udp%3A%2F%2Fopen.demonii.com%3A1337&amp;tr=udp%3A%2F%2Ftracker.coppersurfer.tk%3A6969&amp;tr=udp%3A%2F%2Fexodus.desync.com%3A6969","seeders":2,"leechers":2,"uploader":"Xdesiars","files":4,"time":1408998905,"description":"Format                                   : Matroska\nFormat version                           : Version 2\nFile size                                : 1.17 GiB\nDuration                                 : 1h 53mn\nOverall bit rate                         : 1 475 Kbps\nMovie name                               : Ender's Game (2013) by XdesiArsenal [ExD-XMR]\nEncoded date                             : UTC 2014-08-25 17:28:20\nWriting application                      : mkvmerge v5.0.1 ('Es ist Sommer') built on Nov 23 2011 20:48:57\nWriting library                          : libebml v1.2.2 + libmatroska v1.3.0\n\nVideo\nID                                       : 1\nFormat                                   : AVC\nFormat/Info                              : Advanced Video Codec\nFormat profile                           : &lt;a class=&quot;__cf_email__&quot; href=&quot;/cdn-cgi/l/email-protection&quot; data-cfemail=&quot;bef3dfd7d0fef28d908f&quot;&gt;[email&amp;#160;protected]&lt;/a&gt;&lt;script cf-hash='f9e31' type=&quot;text/javascript&quot;&gt;\n/* &lt;![CDATA[ */!function(){try{var t=&quot;currentScript&quot;in document?document.currentScript:function(){for(var t=document.getElementsByTagName(&quot;script&quot;),e=t.length;e--;)if(t[e].getAttribute(&quot;cf-hash&quot;))return t[e]}();if(t&amp;&amp;t.previousSibling){var e,r,n,i,c=t.previousSibling,a=c.getAttribute(&quot;data-cfemail&quot;);if(a){for(e=&quot;&quot;,r=parseInt(a.substr(0,2),16),n=2;a.length-n;n+=2)i=parseInt(a.substr(n,2),16)^r,e+=String.fromCharCode(i);e=document.createTextNode(e),c.parentNode.replaceChild(e,c)}}}catch(u){}}();/* ]]&gt; */&lt;/script&gt;\nFormat settings, CABAC                   : Yes\nFormat settings, ReFrames                : 4 frames\nMuxing mode                              : Header stripping\nCodec ID                                 : V_MPEG4/ISO/AVC\nDuration                                 : 1h 53mn\nBit rate                                 : 934 Kbps\nWidth                                    : 1 280 pixels\nHeight                                   : 544 pixels\nDisplay aspect ratio                     : 2.40:1\nFrame rate mode                          : Constant\nFrame rate                               : 23.976 fps\nColor space                              : YUV\nChroma subsampling                       : 4:2:0\nBit depth                                : 8 bits\nScan type                                : Progressive\nBits/(Pixel*Frame)                       : 0.056\nStream size                              : 760 MiB (63%)\nTitle                                    : Ender's Game (2013) by XdesiArsenal [ExD-XMR]\nLanguage                                 : English\nDefault                                  : Yes\nForced                                   : No\nColor primaries                          : BT.709\nTransfer characteristics                 : BT.709\nMatrix coefficients                      : BT.709\n\nAudio #1\nID                                       : 2\nFormat                                   : AC-3\nFormat/Info                              : Audio Coding 3\nMode extension                           : CM (complete main)\nFormat settings, Endianness              : Big\nMuxing mode                              : Header stripping\nCodec ID                                 : A_AC3\nDuration                                 : 1h 53mn\nBit rate mode                            : Constant\nBit rate                                 : 256 Kbps\nChannel(s)                               : 6 channels\nChannel positions                        : Front: L C R, Side: L R, LFE\nSampling rate                            : 48.0 KHz\nBit depth                                : 16 bits\nCompression mode                         : Lossy\nStream size                              : 208 MiB (17%)\nTitle                                    : XdesiArsenal\nLanguage                                 : English\nDefault                                  : No\nForced                                   : No\n\nAudio #2\nID                                       : 3\nFormat                                   : MPEG Audio\nFormat version                           : Version 1\nFormat profile                           : Layer 3\nMuxing mode                              : Header stripping\nCodec ID                                 : A_MPEG/L3\nCodec ID/Hint                            : MP3\nDuration                                 : 1h 53mn\nBit rate mode                            : Constant\nBit rate                                 : 256 Kbps\nChannel(s)                               : 2 channels\nSampling rate                            : 48.0 KHz\nCompression mode                         : Lossy\nStream size                              : 208 MiB (17%)\nTitle                                    : XdesiArsenal\nWriting library                          : LAME3.99.5\nLanguage                                 : Hindi\nDefault                                  : Yes\nForced                                   : Yes\n\nMenu\n00:00:00.000                             : en:Chapter 1\n00:06:10.661                             : en:Chapter 2\n00:14:18.566                             : en:Chapter 3\n00:19:06.145                             : en:Chapter 4\n00:28:07.268                             : en:Chapter 5\n00:33:22.667                             : en:Chapter 6\n00:39:34.789                             : en:Chapter 7\n00:45:43.407                             : en:Chapter 8\n00:53:37.714                             : en:Chapter 9\n01:02:15.648                             : en:Chapter 10\n01:09:21.949                             : en:Chapter 11\n01:15:16.887                             : en:Chapter 12\n01:23:38.471                             : en:Chapter 13\n01:30:54.824                             : en:Chapter 14\n01:35:43.279                             : en:Chapter 15\n01:41:12.858                             : en:Chapter 16\n","torrent":{"xt":"urn:btih:5b1570f42853df307e21bf3b34aa3a45c1e130eb","amp;dn":"Ender%27s+Game+%282013%29+BRrip+720p+x264+Dual+Audio+%5BEng+DD+5.1-Hindi","amp;tr":["udp%3A%2F%2Ftracker.openbittorrent.com%3A80","udp%3A%2F%2Fopen.demonii.com%3A1337","udp%3A%2F%2Ftracker.coppersurfer.tk%3A6969","udp%3A%2F%2Fexodus.desync.com%3A6969"],"infoHash":"5b1570f42853df307e21bf3b34aa3a45c1e130eb","infoHashBuffer":{"type":"Buffer","data":[91,21,112,244,40,83,223,48,126,33,191,59,52,170,58,69,193,225,48,235]},"announce":[],"urlList":[]}}